<mxfile host="app.diagrams.net" modified="2022-03-10T10:27:01.755Z" agent="5.0 (Windows NT 10.0; Win64; x64) AppleWebKit/537.36 (KHTML, like Gecko) Chrome/97.0.4692.71 Safari/537.36" etag="3F5Is4oF-WlSd3oFm7JE" version="16.6.3" type="github">
  <diagram id="m3gFDPZ18lSmyjhxiiTP" name="第 1 页">
    <mxGraphModel dx="1038" dy="547" grid="1" gridSize="10" guides="1" tooltips="1" connect="1" arrows="1" fold="1" page="1" pageScale="1" pageWidth="827" pageHeight="1169" math="0" shadow="0">
      <root>
        <mxCell id="0" />
        <mxCell id="1" parent="0" />
        <mxCell id="hPtF4HsWPdSG9iK1hHm2-13" value="" style="edgeStyle=orthogonalEdgeStyle;rounded=0;orthogonalLoop=1;jettySize=auto;html=1;" edge="1" parent="1" source="hPtF4HsWPdSG9iK1hHm2-1" target="hPtF4HsWPdSG9iK1hHm2-3">
          <mxGeometry relative="1" as="geometry" />
        </mxCell>
        <mxCell id="hPtF4HsWPdSG9iK1hHm2-1" value="订单递交" style="rounded=1;whiteSpace=wrap;html=1;" vertex="1" parent="1">
          <mxGeometry x="94" y="50" width="120" height="60" as="geometry" />
        </mxCell>
        <mxCell id="hPtF4HsWPdSG9iK1hHm2-9" value="存在" style="edgeStyle=orthogonalEdgeStyle;rounded=0;orthogonalLoop=1;jettySize=auto;html=1;" edge="1" parent="1" source="hPtF4HsWPdSG9iK1hHm2-3" target="hPtF4HsWPdSG9iK1hHm2-4">
          <mxGeometry relative="1" as="geometry" />
        </mxCell>
        <mxCell id="hPtF4HsWPdSG9iK1hHm2-17" value="不存在" style="edgeStyle=orthogonalEdgeStyle;rounded=0;orthogonalLoop=1;jettySize=auto;html=1;" edge="1" parent="1" source="hPtF4HsWPdSG9iK1hHm2-3">
          <mxGeometry relative="1" as="geometry">
            <mxPoint x="154" y="340" as="targetPoint" />
          </mxGeometry>
        </mxCell>
        <mxCell id="hPtF4HsWPdSG9iK1hHm2-3" value="查询子单明细备注" style="rhombus;whiteSpace=wrap;html=1;" vertex="1" parent="1">
          <mxGeometry x="81" y="170" width="146" height="90" as="geometry" />
        </mxCell>
        <mxCell id="hPtF4HsWPdSG9iK1hHm2-10" value="" style="edgeStyle=orthogonalEdgeStyle;rounded=0;orthogonalLoop=1;jettySize=auto;html=1;" edge="1" parent="1" source="hPtF4HsWPdSG9iK1hHm2-4" target="hPtF4HsWPdSG9iK1hHm2-8">
          <mxGeometry relative="1" as="geometry" />
        </mxCell>
        <mxCell id="hPtF4HsWPdSG9iK1hHm2-4" value="提取主播id" style="rounded=1;whiteSpace=wrap;html=1;" vertex="1" parent="1">
          <mxGeometry x="290" y="185" width="120" height="60" as="geometry" />
        </mxCell>
        <mxCell id="hPtF4HsWPdSG9iK1hHm2-5" value="获取直播间id" style="rounded=1;whiteSpace=wrap;html=1;" vertex="1" parent="1">
          <mxGeometry x="610" y="110" width="120" height="60" as="geometry" />
        </mxCell>
        <mxCell id="hPtF4HsWPdSG9iK1hHm2-6" value="创建全天直播间" style="rounded=1;whiteSpace=wrap;html=1;" vertex="1" parent="1">
          <mxGeometry x="610" y="260" width="120" height="60" as="geometry" />
        </mxCell>
        <mxCell id="hPtF4HsWPdSG9iK1hHm2-11" style="edgeStyle=orthogonalEdgeStyle;rounded=0;orthogonalLoop=1;jettySize=auto;html=1;entryX=0;entryY=0.5;entryDx=0;entryDy=0;" edge="1" parent="1" source="hPtF4HsWPdSG9iK1hHm2-8" target="hPtF4HsWPdSG9iK1hHm2-5">
          <mxGeometry relative="1" as="geometry">
            <Array as="points">
              <mxPoint x="525" y="140" />
            </Array>
          </mxGeometry>
        </mxCell>
        <mxCell id="hPtF4HsWPdSG9iK1hHm2-14" value="有" style="edgeLabel;html=1;align=center;verticalAlign=middle;resizable=0;points=[];" vertex="1" connectable="0" parent="hPtF4HsWPdSG9iK1hHm2-11">
          <mxGeometry x="0.1145" y="-1" relative="1" as="geometry">
            <mxPoint y="-1" as="offset" />
          </mxGeometry>
        </mxCell>
        <mxCell id="hPtF4HsWPdSG9iK1hHm2-12" style="edgeStyle=orthogonalEdgeStyle;rounded=0;orthogonalLoop=1;jettySize=auto;html=1;entryX=0;entryY=0.5;entryDx=0;entryDy=0;" edge="1" parent="1" source="hPtF4HsWPdSG9iK1hHm2-8" target="hPtF4HsWPdSG9iK1hHm2-6">
          <mxGeometry relative="1" as="geometry">
            <Array as="points">
              <mxPoint x="520" y="300" />
              <mxPoint x="610" y="300" />
            </Array>
          </mxGeometry>
        </mxCell>
        <mxCell id="hPtF4HsWPdSG9iK1hHm2-15" value="无" style="edgeLabel;html=1;align=center;verticalAlign=middle;resizable=0;points=[];" vertex="1" connectable="0" parent="hPtF4HsWPdSG9iK1hHm2-12">
          <mxGeometry x="0.2482" y="-1" relative="1" as="geometry">
            <mxPoint as="offset" />
          </mxGeometry>
        </mxCell>
        <mxCell id="hPtF4HsWPdSG9iK1hHm2-8" value="查询是否有直播间" style="rhombus;whiteSpace=wrap;html=1;" vertex="1" parent="1">
          <mxGeometry x="460" y="170" width="130" height="90" as="geometry" />
        </mxCell>
        <mxCell id="hPtF4HsWPdSG9iK1hHm2-21" value="存在" style="edgeStyle=orthogonalEdgeStyle;rounded=0;orthogonalLoop=1;jettySize=auto;html=1;" edge="1" parent="1" source="hPtF4HsWPdSG9iK1hHm2-19" target="hPtF4HsWPdSG9iK1hHm2-20">
          <mxGeometry relative="1" as="geometry" />
        </mxCell>
        <mxCell id="hPtF4HsWPdSG9iK1hHm2-19" value="查询当前时间该店铺所有符合条件的直播间" style="rhombus;whiteSpace=wrap;html=1;" vertex="1" parent="1">
          <mxGeometry x="79.5" y="340" width="149" height="110" as="geometry" />
        </mxCell>
        <mxCell id="hPtF4HsWPdSG9iK1hHm2-20" value="" style="whiteSpace=wrap;html=1;" vertex="1" parent="1">
          <mxGeometry x="323" y="365" width="120" height="60" as="geometry" />
        </mxCell>
      </root>
    </mxGraphModel>
  </diagram>
</mxfile>
